<svg xmlns="http://www.w3.org/2000/svg" xmlns:svg="http://www.w3.org/2000/svg" xmlns:xlink="http://www.w3.org/1999/xlink" id="svg2" width="588.982" height="249.918" version="1.1"><defs id="defs4"><linearGradient id="linearGradient6473"><stop id="stop6475" offset="0" stop-color="#fff" stop-opacity="1"/><stop id="stop6512" offset=".59" stop-color="#fff" stop-opacity=".818"/><stop id="stop6477" offset="1" stop-color="#fff" stop-opacity="0"/></linearGradient><marker id="Arrow1Mstart" orient="auto" overflow="visible" refX="0" refY="0"><path id="path5784" fill-rule="evenodd" stroke="#000" stroke-width="1pt" d="M 0.0,0.0 L 5.0,-5.0 L -12.5,0.0 L 5.0,5.0 L 0.0,0.0 z" transform="scale(0.4) translate(10,0)"/></marker><linearGradient id="linearGradient4090"><stop id="stop4092" offset="0" stop-color="#676767" stop-opacity="1"/><stop id="stop4094" offset="1" stop-color="#fff" stop-opacity="1"/></linearGradient><marker id="Arrow1Mend" orient="auto" overflow="visible" refX="0" refY="0"><path id="path6525" fill-rule="evenodd" stroke="#000" stroke-width="1pt" d="M 0,0 5,-5 -12.5,0 5,5 0,0 z" transform="matrix(-0.4,0,0,-0.4,-4,0)"/></marker><linearGradient id="linearGradient5488-20"><stop id="stop5490-7" offset="0" stop-color="#c1b1b1" stop-opacity="1"/><stop id="stop5492-87" offset="1" stop-color="#e3e3e3" stop-opacity="0"/></linearGradient><linearGradient id="linearGradient3232" x1="-3.953" x2="-3.953" y1="1096.671" y2="1083.671" gradientTransform="translate(62.069492,-104.13747)" gradientUnits="userSpaceOnUse" xlink:href="#linearGradient5488-20"/><linearGradient id="linearGradient5488-20-3"><stop id="stop5490-7-5" offset="0" stop-color="#c1b1b1" stop-opacity="1"/><stop id="stop5492-87-92" offset="1" stop-color="#e3e3e3" stop-opacity="0"/></linearGradient><linearGradient id="linearGradient4090-3"><stop id="stop4092-7" offset="0" stop-color="#676767" stop-opacity="1"/><stop id="stop4094-0" offset="1" stop-color="#fff" stop-opacity="1"/></linearGradient><linearGradient id="linearGradient4090-7"><stop id="stop4092-4" offset="0" stop-color="#676767" stop-opacity="1"/><stop id="stop4094-4" offset="1" stop-color="#fff" stop-opacity="1"/></linearGradient><linearGradient id="linearGradient3676" x1="6.047" x2="6.047" y1="1096.671" y2="1071.671" gradientTransform="translate(28.81971,-199.9652)" gradientUnits="userSpaceOnUse" xlink:href="#linearGradient5488-20-3"/><linearGradient id="linearGradient3678" x1="6.047" x2="6.047" y1="1096.671" y2="1071.671" gradientTransform="translate(425.04258,-238.20792)" gradientUnits="userSpaceOnUse" xlink:href="#linearGradient4090-3"/><linearGradient id="linearGradient4747" x1="-3.953" x2="-3.953" y1="1096.671" y2="1083.671" gradientTransform="translate(146.83598,-134.05825)" gradientUnits="userSpaceOnUse" xlink:href="#linearGradient4090"/><linearGradient id="linearGradient5028" x1="-3.953" x2="-3.953" y1="1096.671" y2="1083.671" gradientTransform="translate(386.36238,-81.863586)" gradientUnits="userSpaceOnUse" xlink:href="#linearGradient4090-7"/><linearGradient id="linearGradient5060" x1="6.047" x2="6.047" y1="1096.671" y2="1071.671" gradientTransform="translate(570.44207,-199.9652)" gradientUnits="userSpaceOnUse" xlink:href="#linearGradient5488-20-3"/><linearGradient id="linearGradient5064" x1="6.047" x2="6.047" y1="1096.671" y2="1071.671" gradientTransform="translate(555.44207,-199.9652)" gradientUnits="userSpaceOnUse" xlink:href="#linearGradient5488-20-3"/><linearGradient id="linearGradient5068" x1="6.047" x2="6.047" y1="1096.671" y2="1071.671" gradientTransform="translate(540.44207,-199.9652)" gradientUnits="userSpaceOnUse" xlink:href="#linearGradient5488-20-3"/><linearGradient id="linearGradient5072" x1="6.047" x2="6.047" y1="1096.671" y2="1071.671" gradientTransform="translate(525.44207,-199.9652)" gradientUnits="userSpaceOnUse" xlink:href="#linearGradient5488-20-3"/><linearGradient id="linearGradient5076" x1="6.047" x2="6.047" y1="1096.671" y2="1071.671" gradientTransform="translate(510.44207,-199.9652)" gradientUnits="userSpaceOnUse" xlink:href="#linearGradient5488-20-3"/><linearGradient id="linearGradient5080" x1="6.047" x2="6.047" y1="1096.671" y2="1071.671" gradientTransform="translate(495.44207,-199.9652)" gradientUnits="userSpaceOnUse" xlink:href="#linearGradient5488-20-3"/><linearGradient id="linearGradient5084" x1="6.047" x2="6.047" y1="1096.671" y2="1071.671" gradientTransform="translate(480.44207,-199.9652)" gradientUnits="userSpaceOnUse" xlink:href="#linearGradient5488-20-3"/><linearGradient id="linearGradient5100" x1="6.047" x2="6.047" y1="1096.671" y2="1071.671" gradientTransform="translate(375.44208,-199.96528)" gradientUnits="userSpaceOnUse" xlink:href="#linearGradient4090-3"/><radialGradient id="radialGradient6483" cx="84.853" cy="-90.554" r="104.652" fx="84.853" fy="-90.554" gradientTransform="matrix(0.70439223,0.00126685,-1.8835654e-4,0.10472956,70.889566,893.88222)" gradientUnits="userSpaceOnUse" xlink:href="#linearGradient6473"/><radialGradient id="radialGradient6532" cx="84.853" cy="-90.554" r="104.652" fx="84.853" fy="-90.554" gradientTransform="matrix(0.70439223,0.00126685,-1.8835654e-4,0.10472956,423.79994,894.04478)" gradientUnits="userSpaceOnUse" xlink:href="#linearGradient6473"/></defs><metadata id="metadata7"/><g id="layer1" transform="translate(-12.08927,-776.79467)"><g id="g4577"><g id="g4464"><path id="use4038-6-2" fill="url(#linearGradient3232)" fill-opacity="1" stroke="#000" stroke-dasharray="none" stroke-dashoffset="0" stroke-linecap="butt" stroke-linejoin="miter" stroke-miterlimit="4" stroke-opacity="1" stroke-width="1" d="m 58.116182,992.53334 -5,0 0,-13 5,0 z"/><use id="use4264" x="0" y="0" xlink:href="#use4038-6-2"/><use id="use4266" x="0" y="0" transform="translate(5,0)" xlink:href="#use4038-6-2"/><use id="use4268" x="0" y="0" transform="translate(10,0)" xlink:href="#use4038-6-2"/><use id="use4270" x="0" y="0" transform="translate(15,0)" xlink:href="#use4038-6-2"/><use id="use4272" x="0" y="0" transform="translate(20,0)" xlink:href="#use4038-6-2"/><use id="use4274" x="0" y="0" transform="translate(25,0)" xlink:href="#use4038-6-2"/><use id="use4276" x="0" y="0" transform="translate(30,0)" xlink:href="#use4038-6-2"/><use id="use4278" x="0" y="0" transform="translate(35,0)" xlink:href="#use4038-6-2"/><use id="use4280" x="0" y="0" transform="translate(40,0)" xlink:href="#use4038-6-2"/><use id="use4282" x="0" y="0" transform="translate(45,0)" xlink:href="#use4038-6-2"/><use id="use4284" x="0" y="0" transform="translate(50,0)" xlink:href="#use4038-6-2"/><use id="use4286" x="0" y="0" transform="translate(55,0)" xlink:href="#use4038-6-2"/><use id="use4288" x="0" y="0" transform="translate(60,0)" xlink:href="#use4038-6-2"/><use id="use4290" x="0" y="0" transform="translate(65,0)" xlink:href="#use4038-6-2"/><use id="use4292" x="0" y="0" transform="translate(70,0)" xlink:href="#use4038-6-2"/><use id="use4294" x="0" y="0" transform="translate(75,0)" xlink:href="#use4038-6-2"/><use id="use4296" x="0" y="0" transform="translate(80,0)" xlink:href="#use4038-6-2"/><use id="use4298" x="0" y="0" transform="translate(85,0)" xlink:href="#use4038-6-2"/><use id="use4300" x="0" y="0" transform="translate(90,0)" xlink:href="#use4038-6-2"/><use id="use4302" x="0" y="0" transform="translate(95,0)" xlink:href="#use4038-6-2"/><use id="use4304" x="0" y="0" transform="translate(100,0)" xlink:href="#use4038-6-2"/><use id="use4306" x="0" y="0" transform="translate(105,0)" xlink:href="#use4038-6-2"/><use id="use4308" x="0" y="0" transform="translate(110,0)" xlink:href="#use4038-6-2"/><use id="use4310" x="0" y="0" transform="translate(115,0)" xlink:href="#use4038-6-2"/><use id="use4312" x="0" y="0" transform="translate(120,0)" xlink:href="#use4038-6-2"/><use id="use4314" x="0" y="0" transform="translate(125,0)" xlink:href="#use4038-6-2"/><use id="use4316" x="0" y="0" transform="translate(130,0)" xlink:href="#use4038-6-2"/><use id="use4318" x="0" y="0" transform="translate(135,0)" xlink:href="#use4038-6-2"/><use id="use4320" x="0" y="0" transform="translate(140,0)" xlink:href="#use4038-6-2"/><use id="use4322" x="0" y="0" transform="translate(145,0)" xlink:href="#use4038-6-2"/><use id="use4324" x="0" y="0" transform="translate(150,0)" xlink:href="#use4038-6-2"/><use id="use4326" x="0" y="0" transform="translate(155,0)" xlink:href="#use4038-6-2"/><use id="use4328" x="0" y="0" transform="translate(160,0)" xlink:href="#use4038-6-2"/><use id="use4330" x="0" y="0" transform="translate(165,0)" xlink:href="#use4038-6-2"/><use id="use4332" x="0" y="0" transform="translate(170,0)" xlink:href="#use4038-6-2"/><use id="use4334" x="0" y="0" transform="translate(175,0)" xlink:href="#use4038-6-2"/><use id="use4336" x="0" y="0" transform="translate(180,0)" xlink:href="#use4038-6-2"/><use id="use4338" x="0" y="0" transform="translate(185,0)" xlink:href="#use4038-6-2"/><use id="use4340" x="0" y="0" transform="translate(190,0)" xlink:href="#use4038-6-2"/><use id="use4342" x="0" y="0" transform="translate(195,0)" xlink:href="#use4038-6-2"/><use id="use4344" x="0" y="0" transform="translate(200,0)" xlink:href="#use4038-6-2"/><use id="use4346" x="0" y="0" transform="translate(205,0)" xlink:href="#use4038-6-2"/><use id="use4348" x="0" y="0" transform="translate(210,0)" xlink:href="#use4038-6-2"/><use id="use4350" x="0" y="0" transform="translate(215,0)" xlink:href="#use4038-6-2"/><use id="use4352" x="0" y="0" transform="translate(220,0)" xlink:href="#use4038-6-2"/><use id="use4354" x="0" y="0" transform="translate(225,0)" xlink:href="#use4038-6-2"/><use id="use4356" x="0" y="0" transform="translate(230,0)" xlink:href="#use4038-6-2"/><use id="use4358" x="0" y="0" transform="translate(235,0)" xlink:href="#use4038-6-2"/><use id="use4360" x="0" y="0" transform="translate(240,0)" xlink:href="#use4038-6-2"/><use id="use4362" x="0" y="0" transform="translate(245,0)" xlink:href="#use4038-6-2"/><use id="use4364" x="0" y="0" transform="translate(250,0)" xlink:href="#use4038-6-2"/><use id="use4366" x="0" y="0" transform="translate(255,0)" xlink:href="#use4038-6-2"/><use id="use4368" x="0" y="0" transform="translate(260,0)" xlink:href="#use4038-6-2"/><use id="use4370" x="0" y="0" transform="translate(265,0)" xlink:href="#use4038-6-2"/><use id="use4372" x="0" y="0" transform="translate(270,0)" xlink:href="#use4038-6-2"/><use id="use4374" x="0" y="0" transform="translate(275,0)" xlink:href="#use4038-6-2"/><use id="use4376" x="0" y="0" transform="translate(280,0)" xlink:href="#use4038-6-2"/><use id="use4378" x="0" y="0" transform="translate(285,0)" xlink:href="#use4038-6-2"/><use id="use4380" x="0" y="0" transform="translate(290,0)" xlink:href="#use4038-6-2"/><use id="use4382" x="0" y="0" transform="translate(295,0)" xlink:href="#use4038-6-2"/><use id="use4384" x="0" y="0" transform="translate(300,0)" xlink:href="#use4038-6-2"/><use id="use4386" x="0" y="0" transform="translate(305,0)" xlink:href="#use4038-6-2"/><use id="use4388" x="0" y="0" transform="translate(310,0)" xlink:href="#use4038-6-2"/><use id="use4390" x="0" y="0" transform="translate(315,0)" xlink:href="#use4038-6-2"/><use id="use4392" x="0" y="0" transform="translate(320,0)" xlink:href="#use4038-6-2"/><use id="use4394" x="0" y="0" transform="translate(325,0)" xlink:href="#use4038-6-2"/><use id="use4396" x="0" y="0" transform="translate(330,0)" xlink:href="#use4038-6-2"/><use id="use4398" x="0" y="0" transform="translate(335,0)" xlink:href="#use4038-6-2"/><use id="use4400" x="0" y="0" transform="translate(340,0)" xlink:href="#use4038-6-2"/><use id="use4402" x="0" y="0" transform="translate(345,0)" xlink:href="#use4038-6-2"/><use id="use4404" x="0" y="0" transform="translate(350,0)" xlink:href="#use4038-6-2"/><use id="use4406" x="0" y="0" transform="translate(355,0)" xlink:href="#use4038-6-2"/><use id="use4408" x="0" y="0" transform="translate(360,0)" xlink:href="#use4038-6-2"/><use id="use4410" x="0" y="0" transform="translate(365,0)" xlink:href="#use4038-6-2"/><use id="use4412" x="0" y="0" transform="translate(370,0)" xlink:href="#use4038-6-2"/><use id="use4414" x="0" y="0" transform="translate(375,0)" xlink:href="#use4038-6-2"/><use id="use4416" x="0" y="0" transform="translate(380,0)" xlink:href="#use4038-6-2"/><use id="use4418" x="0" y="0" transform="translate(385,0)" xlink:href="#use4038-6-2"/><use id="use4420" x="0" y="0" transform="translate(390,0)" xlink:href="#use4038-6-2"/><use id="use4422" x="0" y="0" transform="translate(395,0)" xlink:href="#use4038-6-2"/><use id="use4424" x="0" y="0" transform="translate(400,0)" xlink:href="#use4038-6-2"/><use id="use4426" x="0" y="0" transform="translate(405,0)" xlink:href="#use4038-6-2"/><use id="use4428" x="0" y="0" transform="translate(410,0)" xlink:href="#use4038-6-2"/><use id="use4430" x="0" y="0" transform="translate(415,0)" xlink:href="#use4038-6-2"/><use id="use4432" x="0" y="0" transform="translate(420,0)" xlink:href="#use4038-6-2"/><use id="use4434" x="0" y="0" transform="translate(425,0)" xlink:href="#use4038-6-2"/><use id="use4436" x="0" y="0" transform="translate(430,0)" xlink:href="#use4038-6-2"/><use id="use4438" x="0" y="0" transform="translate(435,0)" xlink:href="#use4038-6-2"/><use id="use4440" x="0" y="0" transform="translate(440,0)" xlink:href="#use4038-6-2"/><use id="use4442" x="0" y="0" transform="translate(445,0)" xlink:href="#use4038-6-2"/><use id="use4444" x="0" y="0" transform="translate(450,0)" xlink:href="#use4038-6-2"/><use id="use4446" x="0" y="0" transform="translate(455,0)" xlink:href="#use4038-6-2"/><use id="use4448" x="0" y="0" transform="translate(460,0)" xlink:href="#use4038-6-2"/><use id="use4450" x="0" y="0" transform="translate(465,0)" xlink:href="#use4038-6-2"/><use id="use4452" x="0" y="0" transform="translate(470,0)" xlink:href="#use4038-6-2"/><use id="use4454" x="0" y="0" transform="translate(475,0)" xlink:href="#use4038-6-2"/><use id="use4456" x="0" y="0" transform="translate(480,0)" xlink:href="#use4038-6-2"/><use id="use4458" x="0" y="0" transform="translate(485,0)" xlink:href="#use4038-6-2"/><use id="use4460" x="0" y="0" transform="translate(490,0)" xlink:href="#use4038-6-2"/><use id="use4462" x="0" y="0" transform="translate(495,0)" xlink:href="#use4038-6-2"/></g><path id="path4567" fill="none" stroke="#000" stroke-linecap="butt" stroke-linejoin="miter" stroke-opacity="1" stroke-width="1" d="m 41.026912,202.73867 -4.787689,0" transform="translate(12.08927,776.79467)"/><path id="path4571" fill="none" stroke="#000" stroke-linecap="butt" stroke-linejoin="miter" stroke-opacity="1" stroke-width="1" d="m 53.116182,992.53334 -4.787689,0"/><path id="path4573" fill="none" stroke="#000" stroke-linecap="butt" stroke-linejoin="miter" stroke-opacity="1" stroke-width="1" d="m 557.90387,992.53334 -4.78769,0"/><path id="path4575" fill="none" stroke="#000" stroke-linecap="butt" stroke-linejoin="miter" stroke-opacity="1" stroke-width="1" d="m 557.90387,979.53334 -4.78769,0"/></g><path id="path7243-8" fill="none" stroke="#000" stroke-linecap="butt" stroke-linejoin="miter" stroke-opacity="1" stroke-width="1" marker-end="url(#Arrow1Mend)" marker-mid="none" d="m 304.38692,828.81598 c -2.41602,49.0421 -4.92955,44.81466 -7.33095,81.12048"/><text id="text6504-7-3" x="200.852" y="797.244" fill="#00f" fill-opacity="1" stroke="none" font-family="Droid Sans" font-size="10" font-stretch="normal" font-style="normal" font-variant="normal" font-weight="normal" letter-spacing="0" word-spacing="0" writing-mode="lr-tb" xml:space="preserve" style="line-height:55.00000119%;-inkscape-font-specification:Droid Sans"><tspan id="tspan6506-6-3" x="200.852" y="797.244" fill="#00f" fill-opacity="1" font-family="DejaVu Sans Mono" font-size="15" font-stretch="normal" font-style="normal" font-variant="normal" font-weight="normal" rotate="0 0 0 0 0 0 0 0 0 0 0 0 0 0 0 0 0 0 0 0 0 0 0" style="-inkscape-font-specification:DejaVu Sans Mono">basic_streambuf&lt;CharT&gt;</tspan></text><g id="g4730" transform="translate(5.233512,29.920785)"><path id="use4038-6-2-4" fill="url(#linearGradient4747)" fill-opacity="1" stroke="#000" stroke-dasharray="none" stroke-dashoffset="0" stroke-linecap="butt" stroke-linejoin="miter" stroke-miterlimit="4" stroke-opacity="1" stroke-width="1" d="m 142.88267,962.61255 -5,0 0,-12.99999 5,0 z"/><use id="use4164" width="588.982" height="249.918" x="0" y="0" xlink:href="#use4038-6-2-4"/><use id="use4166" width="588.982" height="249.918" x="0" y="0" transform="translate(5,0)" xlink:href="#use4038-6-2-4"/><use id="use4168" width="588.982" height="249.918" x="0" y="0" transform="translate(10,0)" xlink:href="#use4038-6-2-4"/><use id="use4170" width="588.982" height="249.918" x="0" y="0" transform="translate(15,0)" xlink:href="#use4038-6-2-4"/><use id="use4172" width="588.982" height="249.918" x="0" y="0" transform="translate(20,0)" xlink:href="#use4038-6-2-4"/><use id="use4174" width="588.982" height="249.918" x="0" y="0" transform="translate(25,0)" xlink:href="#use4038-6-2-4"/><use id="use4176" width="588.982" height="249.918" x="0" y="0" transform="translate(30,0)" xlink:href="#use4038-6-2-4"/><use id="use4178" width="588.982" height="249.918" x="0" y="0" transform="translate(35,0)" xlink:href="#use4038-6-2-4"/><use id="use4180" width="588.982" height="249.918" x="0" y="0" transform="translate(40,0)" xlink:href="#use4038-6-2-4"/><use id="use4182" width="588.982" height="249.918" x="0" y="0" transform="translate(45,0)" xlink:href="#use4038-6-2-4"/><use id="use4184" width="588.982" height="249.918" x="0" y="0" transform="translate(50,0)" xlink:href="#use4038-6-2-4"/><use id="use4186" width="588.982" height="249.918" x="0" y="0" transform="translate(55,0)" xlink:href="#use4038-6-2-4"/><use id="use4188" width="588.982" height="249.918" x="0" y="0" transform="translate(60,0)" xlink:href="#use4038-6-2-4"/><use id="use4190" width="588.982" height="249.918" x="0" y="0" transform="translate(65,0)" xlink:href="#use4038-6-2-4"/></g><g id="g5019" transform="translate(5.707112,-22.27386)"><path id="use4038-6-2-4-8" fill="url(#linearGradient5028)" fill-opacity="1" stroke="#000" stroke-dasharray="none" stroke-dashoffset="0" stroke-linecap="butt" stroke-linejoin="miter" stroke-miterlimit="4" stroke-opacity="1" stroke-width="1" d="m 382.40907,1014.8072 -5,0 0,-13 5,0 z"/><use id="use4228" width="588.982" height="249.918" x="0" y="0" xlink:href="#use4038-6-2-4-8"/><use id="use4230" width="588.982" height="249.918" x="0" y="0" transform="translate(5,0)" xlink:href="#use4038-6-2-4-8"/><use id="use4232" width="588.982" height="249.918" x="0" y="0" transform="translate(10,0)" xlink:href="#use4038-6-2-4-8"/><use id="use4234" width="588.982" height="249.918" x="0" y="0" transform="translate(15,0)" xlink:href="#use4038-6-2-4-8"/></g><text id="text6504-7-3-7" x="77.308" y="826.566" fill="#000" fill-opacity="1" stroke="none" font-family="Droid Sans" font-size="10" font-stretch="normal" font-style="normal" font-variant="normal" font-weight="normal" letter-spacing="0" word-spacing="0" writing-mode="lr-tb" xml:space="preserve" style="line-height:55.00000119%;-inkscape-font-specification:Droid Sans"><tspan id="tspan6506-6-3-9" x="77.308" y="826.566" fill="#000" fill-opacity="1" font-family="DejaVu Sans Mono" font-size="12.8" font-stretch="normal" font-style="normal" font-variant="normal" font-weight="normal" rotate="0 0 0 0 0 0 0 0 0 0 0 0 0 0 0 0 0 0 0 0 0 0 0 0 0 0 0 0 0 0 0 0 0 0 0 0 0 0 0 0 0 0 0 0 0 0 0 0 0 0 0 0 0 0 0 0 0 0 0 0 0 0 0 0" style="-inkscape-font-specification:DejaVu Sans Mono"><tspan id="tspan5018" font-family="DejaVu Sans" font-size="18" font-stretch="normal" font-style="normal" font-variant="normal" font-weight="normal" style="-inkscape-font-specification:DejaVu Sans">{ </tspan>CharT*<tspan id="tspan5020" font-family="DejaVu Sans" font-stretch="normal" font-style="normal" font-variant="normal" font-weight="normal" style="-inkscape-font-specification:DejaVu Sans">; </tspan>CharT*<tspan id="tspan5022" font-family="DejaVu Sans" font-stretch="normal" font-style="normal" font-variant="normal" font-weight="normal" style="-inkscape-font-specification:DejaVu Sans">; </tspan>CharT*<tspan id="tspan5024" font-family="DejaVu Sans" font-stretch="normal" font-style="normal" font-variant="normal" font-weight="normal" style="-inkscape-font-specification:DejaVu Sans">; </tspan>std::locale<tspan id="tspan5026" font-family="DejaVu Sans" font-stretch="normal" font-style="normal" font-variant="normal" font-weight="normal" style="-inkscape-font-specification:DejaVu Sans">; </tspan>CharT*<tspan id="tspan5028" font-family="DejaVu Sans" font-stretch="normal" font-style="normal" font-variant="normal" font-weight="normal" style="-inkscape-font-specification:DejaVu Sans">; </tspan>CharT*<tspan id="tspan5030" font-family="DejaVu Sans" font-stretch="normal" font-style="normal" font-variant="normal" font-weight="normal" style="-inkscape-font-specification:DejaVu Sans">; </tspan>CharT*<tspan id="tspan5032" font-family="DejaVu Sans" font-size="18" font-stretch="normal" font-style="normal" font-variant="normal" font-weight="normal" style="-inkscape-font-specification:DejaVu Sans"> }</tspan></tspan></text><path id="path6510-3-6-2" fill="none" stroke="#000" stroke-dasharray="1 1" stroke-dashoffset="0" stroke-linecap="butt" stroke-linejoin="miter" stroke-miterlimit="4" stroke-opacity="1" stroke-width="1" marker-end="none" d="m 19.8664,896.70544 c 0,0 123.56348,82.87206 123.24978,82.82791"/><path id="path6510-3-6-2-9" fill="none" stroke="#000" stroke-dasharray="1 1" stroke-dashoffset="0" stroke-linecap="butt" stroke-linejoin="miter" stroke-miterlimit="4" stroke-opacity="1" stroke-width="1" marker-end="none" d="m 229.8664,896.70544 -16.75022,82.8279"/><path id="path6510-3-6-2-9-9" fill="none" stroke="#000" stroke-dasharray="1 1" stroke-dashoffset="0" stroke-linecap="butt" stroke-linejoin="miter" stroke-miterlimit="4" stroke-opacity="1" stroke-width="1" marker-end="none" d="m 366.48877,896.70544 16.62741,82.8279"/><path id="path6510-3-6-2-9-9-4" fill="none" stroke="#000" stroke-dasharray="1 1" stroke-dashoffset="0" stroke-linecap="butt" stroke-linejoin="miter" stroke-miterlimit="4" stroke-opacity="1" stroke-width="1" marker-end="none" d="m 426.48877,896.70544 -23.37259,82.82791"/><text id="text6504-7-3-7-1" x="269.752" y="923.833" fill="#000" fill-opacity="1" stroke="none" font-family="Droid Sans" font-size="10" font-stretch="normal" font-style="normal" font-variant="normal" font-weight="normal" letter-spacing="0" word-spacing="0" writing-mode="lr-tb" xml:space="preserve" style="line-height:55.00000119%;-inkscape-font-specification:Droid Sans"><tspan id="tspan6506-6-3-9-9" x="269.752" y="923.833" fill="#000" fill-opacity="1" font-family="DejaVu Sans Mono" font-size="15" font-stretch="normal" font-style="normal" font-variant="normal" font-weight="normal" rotate="0 0 0 0 0 0 0 0" style="-inkscape-font-specification:DejaVu Sans Mono">codecvt</tspan></text><path id="path7243-8-2" fill="none" stroke="#000" stroke-linecap="butt" stroke-linejoin="miter" stroke-opacity="1" stroke-width="1" marker-end="url(#Arrow1Mend)" marker-mid="none" d="m 215.61618,979.53334 c 8.45689,-32.40912 35.47498,-46.81871 54.13608,-55.70039"/><path id="path7243-8-2-0" fill="none" stroke="#000" stroke-linecap="butt" stroke-linejoin="miter" stroke-opacity="1" stroke-width="1" marker-end="url(#Arrow1Mend)" marker-mid="none" d="m 269.75226,923.83295 c -16.91317,-10.12422 3.16821,-34.04422 -24.88586,-38.37107"/><path id="path7243-8-2-1" fill="none" stroke="#000" stroke-linecap="butt" stroke-linejoin="miter" stroke-opacity="1" stroke-width="1" marker-end="url(#Arrow1Mend)" marker-mid="none" d="m 433.98877,896.70544 c -16.55962,37.95905 -25.53639,-0.0884 -98.07368,19.88336"/><path id="path7243-8-2-1-9" fill="none" stroke="#000" stroke-linecap="butt" stroke-linejoin="miter" stroke-opacity="1" stroke-width="1" marker-end="url(#Arrow1Mend)" marker-mid="none" d="m 448.98876,896.70544 c -28.68462,42.45905 -41.24068,3.26629 -113.77797,23.23804"/><path id="path7243-8-2-1-9-1" fill="none" stroke="#000" stroke-linecap="butt" stroke-linejoin="miter" stroke-opacity="1" stroke-width="1" marker-end="url(#Arrow1Mend)" marker-mid="none" d="m 463.98876,896.70544 c -28.43462,47.58405 -56.89412,6.8619 -129.43141,26.83365"/><path id="path7243-8-2-7" fill="none" stroke="#000" stroke-linecap="butt" stroke-linejoin="miter" stroke-opacity="1" stroke-width="1" marker-end="url(#Arrow1Mend)" marker-mid="none" d="m 335.91509,916.5888 c 4.62787,44.02946 50.26831,18.28782 69.70109,62.94454"/><path id="path7243-8-2-7-2" fill="none" stroke="#000" stroke-linecap="butt" stroke-linejoin="miter" stroke-opacity="1" stroke-width="1" marker-end="url(#Arrow1Mend)" marker-mid="none" d="m 335.21079,919.94348 c 3.75287,34.15446 55.97261,14.93314 75.40539,59.58986"/><path id="path7243-8-2-7-2-4" fill="none" stroke="#000" stroke-linecap="butt" stroke-linejoin="miter" stroke-opacity="1" stroke-width="1" marker-end="url(#Arrow1Mend)" marker-mid="none" d="m 334.55735,923.53909 c 7.75287,27.40446 57.25105,8.08753 81.05883,55.99425"/><g id="g4644"><g id="g4921" transform="translate(-261.22287,38.24264)"><path id="path4723" fill="url(#linearGradient3678)" fill-opacity="1" stroke="#000" stroke-dasharray="none" stroke-dashoffset="0" stroke-linecap="butt" stroke-linejoin="miter" stroke-miterlimit="4" stroke-opacity="1" stroke-width="1" d="m 431.08927,858.4628 -15,0 0,-25 15,0 z"/><use id="use4835" width="588.982" height="249.918" x="0" y="0" xlink:href="#path4723"/><use id="use4837" width="588.982" height="249.918" x="0" y="0" transform="translate(15,0)" xlink:href="#path4723"/><use id="use4839" width="588.982" height="249.918" x="0" y="0" transform="translate(30,0)" xlink:href="#path4723"/><use id="use4841" width="588.982" height="249.918" x="0" y="0" transform="translate(45,0)" xlink:href="#path4723"/><use id="use4843" width="588.982" height="249.918" x="0" y="0" transform="translate(60,0)" xlink:href="#path4723"/></g><path id="use4038-6-2-2" fill="url(#linearGradient3676)" fill-opacity="1" stroke="#000" stroke-dasharray="none" stroke-dashoffset="0" stroke-linecap="butt" stroke-linejoin="miter" stroke-miterlimit="4" stroke-opacity="1" stroke-width="1" d="m 34.8664,896.70544 -15,0 0,-25 15,0 z"/><use id="use4845" width="588.982" height="249.918" x="0" y="0" xlink:href="#use4038-6-2-2"/><use id="use4847" width="588.982" height="249.918" x="0" y="0" transform="translate(15,0)" xlink:href="#use4038-6-2-2"/><use id="use4849" width="588.982" height="249.918" x="0" y="0" transform="translate(30,0)" xlink:href="#use4038-6-2-2"/><use id="use4851" width="588.982" height="249.918" x="0" y="0" transform="translate(45,0)" xlink:href="#use4038-6-2-2"/><use id="use4853" width="588.982" height="249.918" x="0" y="0" transform="translate(60,0)" xlink:href="#use4038-6-2-2"/><use id="use4855" width="588.982" height="249.918" x="0" y="0" transform="translate(75,0)" xlink:href="#use4038-6-2-2"/><use id="use4857" width="588.982" height="249.918" x="0" y="0" transform="translate(90,0)" xlink:href="#use4038-6-2-2"/><use id="use4859" width="588.982" height="249.918" x="0" y="0" transform="translate(105,0)" xlink:href="#use4038-6-2-2"/><use id="use4861" width="588.982" height="249.918" x="0" y="0" transform="translate(120,0)" xlink:href="#use4038-6-2-2"/><path id="path4622" fill="none" stroke="#000" stroke-dasharray="1 1" stroke-dashoffset="0" stroke-linecap="butt" stroke-linejoin="miter" stroke-miterlimit="4" stroke-opacity="1" stroke-width="1" d="m 244.8664,896.70544 -15,0 0,-25 15,0 z"/></g><text id="text6504-7-3-7-1-3" x="167.226" y="923.42" fill="#000" fill-opacity="1" stroke="none" font-family="Droid Sans" font-size="10" font-stretch="normal" font-style="normal" font-variant="normal" font-weight="normal" letter-spacing="0" word-spacing="0" writing-mode="lr-tb" xml:space="preserve" style="line-height:55.00000119%;-inkscape-font-specification:Droid Sans"><tspan id="tspan6506-6-3-9-9-4" x="167.226" y="923.42" fill="#000" fill-opacity="1" font-family="DejaVu Sans Mono" font-size="10" font-stretch="normal" font-style="normal" font-variant="normal" font-weight="normal" rotate="0 0 0 0 0 0 0 0 0 0 0" style="-inkscape-font-specification:DejaVu Sans Mono">in_avail()</tspan></text><text id="text6504-7-3-7-1-3-4" x="101.647" y="947.188" fill="#000" fill-opacity="1" stroke="none" font-family="Droid Sans" font-size="10" font-stretch="normal" font-style="normal" font-variant="normal" font-weight="normal" letter-spacing="0" word-spacing="0" writing-mode="lr-tb" xml:space="preserve" style="line-height:55.00000119%;-inkscape-font-specification:Droid Sans"><tspan id="tspan6506-6-3-9-9-4-5" x="101.647" y="947.188" fill="#000" fill-opacity="1" font-family="DejaVu Sans Mono" font-size="12.8" font-stretch="normal" font-style="normal" font-variant="normal" font-weight="normal" rotate="0 0 0 0 0 0 0 0" style="-inkscape-font-specification:DejaVu Sans Mono">sgetc()</tspan></text><text id="text6504-7-3-7-1-3-46" x="-199.873" y="832.897" fill="#000" fill-opacity="1" stroke="none" font-family="Droid Sans" font-size="10" font-stretch="normal" font-style="normal" font-variant="normal" font-weight="normal" letter-spacing="0" transform="matrix(0.95753297,-0.2883238,0.2883238,0.95753297,0,0)" word-spacing="0" writing-mode="lr-tb" xml:space="preserve" style="line-height:55.00000119%;-inkscape-font-specification:Droid Sans"><tspan id="tspan6506-6-3-9-9-4-8" x="-199.873" y="832.897" fill="#000" fill-opacity="1" font-family="DejaVu Sans Mono" font-size="10" font-stretch="normal" font-style="normal" font-variant="normal" font-weight="normal" rotate="0 0 0 0 0 0 0 0" style="-inkscape-font-specification:DejaVu Sans Mono">eback()</tspan></text><text id="text6504-7-3-7-1-3-46-7" x="-801.764" y="363.037" fill="#000" fill-opacity="1" stroke="none" font-family="Droid Sans" font-size="10" font-stretch="normal" font-style="normal" font-variant="normal" font-weight="normal" letter-spacing="0" transform="matrix(0.24355934,-0.969886,0.969886,0.24355934,0,0)" word-spacing="0" writing-mode="lr-tb" xml:space="preserve" style="line-height:55.00000119%;-inkscape-font-specification:Droid Sans"><tspan id="tspan6506-6-3-9-9-4-8-0" x="-801.764" y="363.037" fill="#000" fill-opacity="1" font-family="DejaVu Sans Mono" font-size="10" font-stretch="normal" font-style="normal" font-variant="normal" font-weight="normal" rotate="0 0 0 0 0 0 0" style="-inkscape-font-specification:DejaVu Sans Mono">gptr()</tspan></text><text id="text6504-7-3-7-1-3-46-7-0" x="851.284" y="100.158" fill="#000" fill-opacity="1" stroke="none" font-family="Droid Sans" font-size="10" font-stretch="normal" font-style="normal" font-variant="normal" font-weight="normal" letter-spacing="0" transform="matrix(0.35702258,0.93409575,-0.93409575,0.35702258,0,0)" word-spacing="0" writing-mode="lr-tb" xml:space="preserve" style="line-height:55.00000119%;-inkscape-font-specification:Droid Sans"><tspan id="tspan6506-6-3-9-9-4-8-0-9" x="851.284" y="100.158" fill="#000" fill-opacity="1" font-family="DejaVu Sans Mono" font-size="10" font-stretch="normal" font-style="normal" font-variant="normal" font-weight="normal" rotate="0 0 0 0 0 0 0 0" style="-inkscape-font-specification:DejaVu Sans Mono">egptr()</tspan></text><text id="text6504-7-3-7-1-3-46-7-0-2" x="869.152" y="-251.592" fill="#000" fill-opacity="1" stroke="none" font-family="Droid Sans" font-size="10" font-stretch="normal" font-style="normal" font-variant="normal" font-weight="normal" letter-spacing="0" transform="matrix(0.12551889,0.99209123,-0.99209123,0.12551889,0,0)" word-spacing="0" writing-mode="lr-tb" xml:space="preserve" style="line-height:55.00000119%;-inkscape-font-specification:Droid Sans"><tspan id="tspan6506-6-3-9-9-4-8-0-9-1" x="869.152" y="-251.592" fill="#000" fill-opacity="1" font-family="DejaVu Sans Mono" font-size="10" font-stretch="normal" font-style="normal" font-variant="normal" font-weight="normal" rotate="0 0 0 0 0 0 0 0" style="-inkscape-font-specification:DejaVu Sans Mono">pbase()</tspan></text><text id="text6504-7-3-7-1-3-46-7-0-2-9" x="671.649" y="730.898" fill="#000" fill-opacity="1" stroke="none" font-family="Droid Sans" font-size="10" font-stretch="normal" font-style="normal" font-variant="normal" font-weight="normal" letter-spacing="0" transform="matrix(0.98035524,0.19723998,-0.19723998,0.98035524,0,0)" word-spacing="0" writing-mode="lr-tb" xml:space="preserve" style="line-height:55.00000119%;-inkscape-font-specification:Droid Sans"><tspan id="tspan6506-6-3-9-9-4-8-0-9-1-7" x="671.649" y="730.898" fill="#000" fill-opacity="1" font-family="DejaVu Sans Mono" font-size="10" font-stretch="normal" font-style="normal" font-variant="normal" font-weight="normal" rotate="0 0 0 0 0 0 0 0" style="-inkscape-font-specification:DejaVu Sans Mono">epptr()</tspan></text><text id="text6504-7-3-7-1-3-46-7-0-2-5" x="731.436" y="601.793" fill="#000" fill-opacity="1" stroke="none" font-family="Droid Sans" font-size="10" font-stretch="normal" font-style="normal" font-variant="normal" font-weight="normal" letter-spacing="0" transform="matrix(0.91609976,0.40095041,-0.40095041,0.91609976,0,0)" word-spacing="0" writing-mode="lr-tb" xml:space="preserve" style="line-height:55.00000119%;-inkscape-font-specification:Droid Sans"><tspan id="tspan6506-6-3-9-9-4-8-0-9-1-0" x="731.436" y="601.793" fill="#000" fill-opacity="1" font-family="DejaVu Sans Mono" font-size="10" font-stretch="normal" font-style="normal" font-variant="normal" font-weight="normal" rotate="0 0 0 0 0 0 0" style="-inkscape-font-specification:DejaVu Sans Mono">pptr()</tspan></text><text id="text6504-7-3-7-1-3-4-7" x="497.645" y="933.507" fill="#000" fill-opacity="1" stroke="none" font-family="Droid Sans" font-size="10" font-stretch="normal" font-style="normal" font-variant="normal" font-weight="normal" letter-spacing="0" word-spacing="0" writing-mode="lr-tb" xml:space="preserve" style="line-height:55.00000119%;-inkscape-font-specification:Droid Sans"><tspan id="tspan6506-6-3-9-9-4-5-4" x="497.645" y="933.507" fill="#000" fill-opacity="1" font-family="DejaVu Sans Mono" font-size="12.8" font-stretch="normal" font-style="normal" font-variant="normal" font-weight="normal" rotate="0 0 0 0 0 0 0 0" style="-inkscape-font-specification:DejaVu Sans Mono">sputc()</tspan></text><text id="text6504-7-3-7-1-3-46-7-0-2-2" x="753.404" y="645.591" fill="#000" fill-opacity="1" stroke="none" font-family="Droid Sans" font-size="10" font-stretch="normal" font-style="normal" font-variant="normal" font-weight="normal" letter-spacing="0" transform="matrix(0.86288943,0.50539275,-0.50539275,0.86288943,0,0)" word-spacing="0" writing-mode="lr-tb" xml:space="preserve" style="line-height:55.00000119%;-inkscape-font-specification:Droid Sans"><tspan id="tspan6506-6-3-9-9-4-8-0-9-1-72" x="753.404" y="645.591" fill="#000" fill-opacity="1" font-family="DejaVu Sans Mono" font-size="10" font-stretch="normal" font-style="normal" font-variant="normal" font-weight="normal" rotate="0 0 0 0 0 0 0 0 0 0 0" style="-inkscape-font-specification:DejaVu Sans Mono">overflow()</tspan></text><text id="text6504-7-3-7-1-3-46-7-0-2-2-9" x="-455.453" y="892.038" fill="#000" fill-opacity="1" stroke="none" font-family="Droid Sans" font-size="10" font-stretch="normal" font-style="normal" font-variant="normal" font-weight="normal" letter-spacing="0" transform="matrix(0.76691333,-0.64175068,0.64175068,0.76691333,0,0)" word-spacing="0" writing-mode="lr-tb" xml:space="preserve" style="line-height:55.00000119%;-inkscape-font-specification:Droid Sans"><tspan id="tspan6506-6-3-9-9-4-8-0-9-1-72-4" x="-455.453" y="892.038" fill="#000" fill-opacity="1" font-family="DejaVu Sans Mono" font-size="10" font-stretch="normal" font-style="normal" font-variant="normal" font-weight="normal" rotate="0 0 0 0 0 0 0 0 0 0 0 0" style="-inkscape-font-specification:DejaVu Sans Mono">underflow()</tspan></text><g id="g5106"><path id="use4038-6-2-4-6" fill="url(#linearGradient5100)" fill-opacity="1" stroke="#000" stroke-dasharray="none" stroke-dashoffset="0" stroke-linecap="butt" stroke-linejoin="miter" stroke-miterlimit="4" stroke-opacity="1" stroke-width="1" d="m 381.48877,896.70544 -15,0 0,-25 15,0 z"/><use id="use4727" width="588.982" height="249.918" x="0" y="0" xlink:href="#use4038-6-2-4-6"/><use id="use4729" width="588.982" height="249.918" x="0" y="0" transform="translate(15,0)" xlink:href="#use4038-6-2-4-6"/><use id="use4731" width="588.982" height="249.918" x="0" y="0" transform="translate(30,0)" xlink:href="#use4038-6-2-4-6"/><use id="use4733" width="588.982" height="249.918" x="0" y="0" transform="translate(45,0)" xlink:href="#use4038-6-2-4-6"/><use id="use4735" width="588.982" height="249.918" x="0" y="0" transform="translate(60,0)" xlink:href="#use4038-6-2-4-6"/><path id="use4871" fill="url(#linearGradient5084)" fill-opacity="1" stroke="#000" stroke-dasharray="none" stroke-dashoffset="0" stroke-linecap="butt" stroke-linejoin="miter" stroke-miterlimit="4" stroke-opacity="1" stroke-width="1" d="m 486.48876,896.70544 -15,0 0,-25 15,0 z"/><path id="use4873" fill="url(#linearGradient5080)" fill-opacity="1" stroke="#000" stroke-dasharray="none" stroke-dashoffset="0" stroke-linecap="butt" stroke-linejoin="miter" stroke-miterlimit="4" stroke-opacity="1" stroke-width="1" d="m 501.48876,896.70544 -15,0 0,-25 15,0 z"/><path id="use4875" fill="url(#linearGradient5076)" fill-opacity="1" stroke="#000" stroke-dasharray="none" stroke-dashoffset="0" stroke-linecap="butt" stroke-linejoin="miter" stroke-miterlimit="4" stroke-opacity="1" stroke-width="1" d="m 516.48876,896.70544 -15,0 0,-25 15,0 z"/><path id="use4877" fill="url(#linearGradient5072)" fill-opacity="1" stroke="#000" stroke-dasharray="none" stroke-dashoffset="0" stroke-linecap="butt" stroke-linejoin="miter" stroke-miterlimit="4" stroke-opacity="1" stroke-width="1" d="m 531.48876,896.70544 -15,0 0,-25 15,0 z"/><path id="use4879" fill="url(#linearGradient5068)" fill-opacity="1" stroke="#000" stroke-dasharray="none" stroke-dashoffset="0" stroke-linecap="butt" stroke-linejoin="miter" stroke-miterlimit="4" stroke-opacity="1" stroke-width="1" d="m 546.48876,896.70544 -15,0 0,-25 15,0 z"/><path id="use4881" fill="url(#linearGradient5064)" fill-opacity="1" stroke="#000" stroke-dasharray="none" stroke-dashoffset="0" stroke-linecap="butt" stroke-linejoin="miter" stroke-miterlimit="4" stroke-opacity="1" stroke-width="1" d="m 561.48876,896.70544 -15,0 0,-25 15,0 z"/><path id="use4883" fill="url(#linearGradient5060)" fill-opacity="1" stroke="#000" stroke-dasharray="none" stroke-dashoffset="0" stroke-linecap="butt" stroke-linejoin="miter" stroke-miterlimit="4" stroke-opacity="1" stroke-width="1" d="m 576.48876,896.70544 -15,0 0,-25 15,0 z"/><path id="use4885" fill="none" stroke="#000" stroke-dasharray="1 1" stroke-dashoffset="0" stroke-linecap="butt" stroke-linejoin="miter" stroke-miterlimit="4" stroke-opacity="1" stroke-width="1" d="m 591.48876,896.70544 -15,0 0,-25 15,0 z"/><use id="use5102" width="588.982" height="249.918" x="0" y="0" transform="translate(75,0)" xlink:href="#use4038-6-2-4-6"/><use id="use5104" width="588.982" height="249.918" x="0" y="0" transform="translate(89.99999,0)" xlink:href="#use4038-6-2-4-6"/></g><path id="path7243-8-9" fill="none" stroke="#000" stroke-linecap="butt" stroke-linejoin="miter" stroke-opacity="1" stroke-width="1" marker-end="url(#Arrow1Mend)" marker-mid="none" d="m 225.21818,829.19098 c 2.65139,12.06915 9.04962,20.20866 12.14822,42.51446"/><path id="path7243-8-9-5" fill="none" stroke="#000" stroke-linecap="butt" stroke-linejoin="miter" stroke-opacity="1" stroke-width="1" marker-end="url(#Arrow1Mend)" marker-mid="none" d="m 171.43745,829.71036 -9.07105,41.99508"/><path id="path7243-8-9-5-7" fill="none" stroke="#000" stroke-linecap="butt" stroke-linejoin="miter" stroke-opacity="1" stroke-width="1" marker-end="url(#Arrow1Mend)" marker-mid="none" d="m 111.77337,830.9854 c -8.57262,22.05066 -61.839144,15.74469 -84.40697,40.72004"/><g id="g5232" transform="matrix(0.99003465,-0.140824,0.140824,0.99003465,-123.58595,40.038191)"><path id="path5228" fill="none" stroke="#000" stroke-linecap="butt" stroke-linejoin="miter" stroke-opacity="1" stroke-width="1" d="m 158.35969,900.44726 c 0.58764,9.99437 30.33333,2 35.375,9"/><use id="use5230" width="588.982" height="249.918" x="0" y="0" transform="matrix(-1,0,0,1,387.46938,0)" xlink:href="#path5228"/></g><path id="path7243-8-9-5-5" fill="none" stroke="#000" stroke-linecap="butt" stroke-linejoin="miter" stroke-opacity="1" stroke-width="1" marker-end="url(#Arrow1Mend)" marker-mid="none" d="m 63.55489,939.11856 c 24.868425,-7.63211 84.49819,-13.24318 93.81151,-42.41312"/><path id="path7243-8-9-5-5-4" fill="none" stroke="#000" stroke-dasharray="none" stroke-linecap="butt" stroke-linejoin="miter" stroke-miterlimit="4" stroke-opacity="1" stroke-width="1.5" marker-end="none" marker-mid="none" marker-start="url(#Arrow1Mstart)" d="m 136.89768,935.53853 c 8.48957,-4.94716 18.88644,-14.23061 25.46872,-38.83309"/><text id="text6504-7-3-7-1-3-46-3" x="-10.947" y="950.301" fill="#000" fill-opacity="1" stroke="none" font-family="Droid Sans" font-size="10" font-stretch="normal" font-style="normal" font-variant="normal" font-weight="normal" letter-spacing="0" transform="matrix(0.99952951,-0.03067164,0.03067164,0.99952951,0,0)" word-spacing="0" writing-mode="lr-tb" xml:space="preserve" style="line-height:55.00000119%;-inkscape-font-specification:Droid Sans"><tspan id="tspan6506-6-3-9-9-4-8-6" x="-10.947" y="950.301" fill="#000" fill-opacity="1" font-family="DejaVu Sans Mono" font-size="10" font-stretch="normal" font-style="normal" font-variant="normal" font-weight="normal" rotate="0 0 0 0 0 0 0 0 0 0 0" style="-inkscape-font-specification:DejaVu Sans Mono">sputbackc()</tspan></text><path id="path7243-8-9-5-5-4-0" fill="none" stroke="#000" stroke-dasharray="none" stroke-linecap="butt" stroke-linejoin="miter" stroke-miterlimit="4" stroke-opacity="1" stroke-width="1.5" marker-end="none" marker-mid="none" marker-start="url(#Arrow1Mstart)" d="m 478.98876,896.70544 c 4.50057,23.0968 9.81258,23.50635 18.36188,27.97244"/><path id="path7243-8-9-59" fill="none" stroke="#000" stroke-linecap="butt" stroke-linejoin="miter" stroke-opacity="1" stroke-width="1" marker-end="url(#Arrow1Mend)" marker-mid="none" d="m 371.04773,828.58536 c 0,0 2.33211,23.03709 3.66294,42.51446"/><path id="path7243-8-9-59-9" fill="none" stroke="#000" stroke-linecap="butt" stroke-linejoin="miter" stroke-opacity="1" stroke-width="1" marker-end="url(#Arrow1Mend)" marker-mid="none" d="m 427.96447,830.20668 c 8.30824,11.36204 36.98034,6.06652 51.7462,40.39314"/><path id="path7243-8-9-59-9-0" fill="none" stroke="#000" stroke-linecap="butt" stroke-linejoin="miter" stroke-opacity="1" stroke-width="1" marker-end="url(#Arrow1Mend)" marker-mid="none" d="m 485.35608,829.35313 c 27.40013,20.90798 72.68923,-0.65099 97.35459,40.74669"/><text id="text6504-7-3-7-0" x="174.252" y="1011.583" fill="#000" fill-opacity="1" stroke="none" font-family="Droid Sans" font-size="10" font-stretch="normal" font-style="normal" font-variant="normal" font-weight="normal" letter-spacing="0" word-spacing="0" writing-mode="lr-tb" xml:space="preserve" style="line-height:55.00000119%;-inkscape-font-specification:Droid Sans"><tspan id="tspan6506-6-3-9-2" x="174.252" y="1011.583" fill="#000" fill-opacity="1" font-family="DejaVu Sans" font-size="12.8" font-stretch="normal" font-style="normal" font-variant="normal" font-weight="normal" rotate="0 0 0 0 0 0 0 0 0 0 0 0 0 0 0 0 0 0 0 0 0 0 0 0 0 0 0 0 0 0 0 0 0 0 0 0 0 0 0" style="-inkscape-font-specification:DejaVu Sans">associated character sequence (stream)</tspan></text><rect id="rect6471" width="144.427" height="22.185" x="59.966" y="873.458" fill="url(#radialGradient6483)" fill-opacity="1" stroke="none" opacity=".897"/><text id="text6508" x="75.099" y="887.485" fill="#000" fill-opacity="1" stroke="none" font-family="DejaVu Sans" font-size="10" font-stretch="normal" font-style="normal" font-variant="normal" font-weight="normal" letter-spacing="0" word-spacing="0" xml:space="preserve" style="line-height:55.00000119%;-inkscape-font-specification:DejaVu Sans"><tspan id="tspan6510" x="75.099" y="887.485">get area (input buffer)</tspan></text><rect id="rect6471-8" width="144.427" height="22.185" x="412.876" y="873.62" fill="url(#radialGradient6532)" fill-opacity="1" stroke="none" opacity=".897"/><text id="text6508-8" x="428.01" y="887.648" fill="#000" fill-opacity="1" stroke="none" font-family="DejaVu Sans" font-size="10" font-stretch="normal" font-style="normal" font-variant="normal" font-weight="normal" letter-spacing="0" word-spacing="0" xml:space="preserve" style="line-height:55.00000119%;-inkscape-font-specification:DejaVu Sans"><tspan id="tspan6510-6" x="428.01" y="887.648">put area (output buffer)</tspan></text></g></svg>